<?xml version="1.0" encoding="UTF-8"?>
<svg id="Layer_1" xmlns="http://www.w3.org/2000/svg" version="1.1" viewBox="0 0 2027.4 591.8">
  <!-- Generator: Adobe Illustrator 30.2.1, SVG Export Plug-In . SVG Version: 2.1.1 Build 1)  -->
  <defs>
    <style>
      .st0 {
        fill: #fff;
      }

      .st1 {
        fill: #b2ff00;
      }
    </style>
  </defs>
  <g>
    <path class="st0" d="M243.5,5.7h267.3c73.9,0,127.5,19.5,165.7,53.6,41.4,36.6,65,89.4,65,153.5,0,112.1-82.9,196.6-199.8,196.6h-128.4v177.1h-169.8V5.7ZM505.1,277.9c41.4,0,67.4-27.6,67.4-67.4s-25.2-64.2-69.1-64.2h-90.2v131.6h91.8Z"/>
    <path class="st0" d="M906.4,5.7h452.5v138.1h-282.7v78.8h236.4v127.5h-236.4v91h282.7v145.4h-452.5V5.7Z"/>
    <path class="st0" d="M1530.2,446.9l216.9-249.4c19.5-22.7,46.3-47.1,46.3-47.1v-2.4s-29.2,3.2-55.2,3.2h-161.7V5.7h442.8v127.5l-215.3,247.8c-26.8,30.9-59.3,60.9-59.3,60.9v2.4s32.5-3.2,68.2-3.2h208.9v145.4h-491.6v-139.7Z"/>
  </g>
  <rect class="st1" x="6.9" y="6.7" width="149.4" height="221"/>
</svg>