<?xml version="1.0" encoding="UTF-8"?>
<svg width="24px" height="24px" viewBox="0 0 24 24" version="1.1" xmlns="http://www.w3.org/2000/svg" xmlns:xlink="http://www.w3.org/1999/xlink">
    <title>Arrow/Right</title>
    <g id="Arrow/Right" stroke="none" stroke-width="1" fill="none" fill-rule="evenodd">
        <path d="M14.4463839,3.39717929 L14.5304816,3.46982147 L22.491323,11.4333262 C22.649788,11.5708391 22.75,11.7737167 22.75,12 C22.75,12.0373356 22.7472719,12.074034 22.7420042,12.1099067 C22.7394389,12.1324526 22.7351713,12.1551799 22.7298495,12.1777088 C22.726263,12.1882267 22.7235306,12.1984936 22.7205885,12.2086714 C22.714789,12.2336973 22.7063612,12.2585752 22.6965938,12.2830425 C22.692248,12.2891865 22.6896993,12.2952057 22.6870749,12.3011841 C22.666542,12.3535601 22.6377984,12.4038443 22.6028206,12.4509571 L22.5301784,12.5350548 L14.5301784,20.5304817 C14.2372015,20.8232912 13.7623278,20.8231554 13.4695183,20.5301784 C13.2033279,20.2638358 13.179241,19.8471652 13.3971794,19.553616 L13.4698216,19.4695183 L20.193,12.75 L2,12.75 C1.58578644,12.75 1.25,12.4142136 1.25,12 C1.25,11.6203042 1.53215388,11.306509 1.89822944,11.2568466 L2,11.25 L20.185,11.25 L13.4695184,4.53017853 C13.2033279,4.26383589 13.1792409,3.84716531 13.3971793,3.55361608 L13.4698215,3.4695184 C13.7361641,3.20332793 14.1528347,3.17924094 14.4463839,3.39717929 Z" id="Combined-Shape" fill="#000000" fill-rule="nonzero"></path>
    </g>
</svg>